HIERARCHY
ROOT Hips
{
	OFFSET 0.00000 0.00000 0.00000
	CHANNELS 6 Xposition Yposition Zposition Zrotation Yrotation Xrotation 
	JOINT LHipJoint
	{
		OFFSET 0 0 0
		CHANNELS 3 Zrotation Yrotation Xrotation
		JOINT LeftHip
		{
			OFFSET 1.46561 -1.72757 0.83774
			CHANNELS 3 Zrotation Yrotation Xrotation
			JOINT LeftKnee
			{
				OFFSET 2.48915 -6.83890 0.00000
				CHANNELS 3 Zrotation Yrotation Xrotation
				JOINT LeftAnkle
				{
					OFFSET 2.60555 -7.15868 0.00000
					CHANNELS 3 Zrotation Yrotation Xrotation
					JOINT LeftToe
					{
						OFFSET 0.19248 -0.52884 2.26738
						CHANNELS 3 Zrotation Yrotation Xrotation
						End Site
						{
							OFFSET 0.00000 -0.00000 1.17015
						}
					}
				}
			}
		}
	}
	JOINT RHipJoint
	{
		OFFSET 0 0 0
		CHANNELS 3 Zrotation Yrotation Xrotation
		JOINT RightHip
		{
			OFFSET -1.46918 -1.72757 0.83774
			CHANNELS 3 Zrotation Yrotation Xrotation
			JOINT RightKnee
			{
				OFFSET -2.49034 -6.84216 0.00000
				CHANNELS 3 Zrotation Yrotation Xrotation
				JOINT RightAnkle
				{
					OFFSET -2.65971 -7.30750 0.00000
					CHANNELS 3 Zrotation Yrotation Xrotation
					JOINT RightToe
					{
						OFFSET -0.19227 -0.52827 2.30785
						CHANNELS 3 Zrotation Yrotation Xrotation
						End Site
						{
							OFFSET -0.00000 -0.00000 1.18972
						}
					}
				}
			}
		}
	}
	JOINT lowerback
	{
		OFFSET 0 0 0
		CHANNELS 3 Zrotation Yrotation Xrotation
		JOINT Chest
		{
			OFFSET 0.02432 2.19909 -0.28000
			CHANNELS 3 Zrotation Yrotation Xrotation
			JOINT Chest2
			{
				OFFSET 0.03714 2.21816 -0.15261
				CHANNELS 3 Zrotation Yrotation Xrotation
				JOINT lowerneck
				{
					OFFSET 0 0 0
					CHANNELS 3 Zrotation Yrotation Xrotation
					JOINT Neck
					{
						OFFSET -0.01896 1.56165 0.21681
						CHANNELS 3 Zrotation Yrotation Xrotation
						JOINT Head
						{
							OFFSET 0.02744 1.56009 0.06764
							CHANNELS 3 Zrotation Yrotation Xrotation
							End Site
							{
								OFFSET 0.01212 1.60574 0.00298
							}
						}
					}
				}
				JOINT LeftCollar
				{
					OFFSET 0 0 0
					CHANNELS 3 Zrotation Yrotation Xrotation
					JOINT LeftShoulder
					{
						OFFSET 3.05595 1.48048 -0.60794
CHANNELS 3 Zrotation Xrotation Yrotation
						JOINT LeftElbow
						{
OFFSET 0 -5.206070 -0.000000
CHANNELS 3 Zrotation Xrotation Yrotation
							JOINT LeftWrist
							{
OFFSET 0 -3.399610 0.000000
CHANNELS 3 Zrotation Xrotation Yrotation
								JOINT lhand
								{
									OFFSET 0 0 0
CHANNELS 3 Zrotation Xrotation Yrotation
									JOINT LFingers
									{
OFFSET 0 -0.519690 0.000000
CHANNELS 3 Zrotation Xrotation Yrotation
										End Site
										{
OFFSET 0 -0.418990 0.000000
										}
									}
								}
								JOINT LThumb
								{
OFFSET 0 0.000000 0.000000
CHANNELS 3 Zrotation Xrotation Yrotation
									End Site
									{
OFFSET 0 -0.425390 0.425390
									}
								}
							}
						}
					}
				}
				JOINT RightCollar
				{
					OFFSET 0 0 0
					CHANNELS 3 Zrotation Yrotation Xrotation
					JOINT RightShoulder
					{
						OFFSET -2.99052 1.57608 -0.69102
CHANNELS 3 Zrotation Xrotation Yrotation
						JOINT RightElbow
						{
OFFSET 0 -5.322140 0.000000
CHANNELS 3 Zrotation Xrotation Yrotation
							JOINT RightWrist
							{
OFFSET 0 -3.512080 0.000000
CHANNELS 3 Zrotation Xrotation Yrotation
								JOINT rhand
								{
									OFFSET 0 0 0
CHANNELS 3 Zrotation Xrotation Yrotation
									JOINT RFingers
									{
OFFSET 0 -0.586680 0.000000
CHANNELS 3 Zrotation Xrotation Yrotation
										End Site
										{
OFFSET 0 -0.473000 0.000000
										}
									}
								}
								JOINT RThumb
								{
OFFSET 0 0.000000 0.000000
CHANNELS 3 Zrotation Xrotation Yrotation
									End Site
									{
OFFSET 0 -0.480220 0.480220
									}
								}
							}
						}
					}
				}
			}
		}
	}
}
MOTION
Frames: 6
Frame Time: 0.008333333333333333
0.271932 13.653733 1.616148 0.429941 -3.610365 1.898116 0.000000 0.000000 0.000000 -10.457626 6.702064 -51.797914 20.446979 19.993248 91.307149 3.426014 -0.199196 -35.085777 1.210349 -6.977746 -19.649956 0.000000 0.000000 0.000000 11.556914 8.552915 -50.219975 -20.284917 -19.997689 90.833066 -4.212806 -3.216755 -40.062583 -0.047925 1.410832 -3.880114 -0.933015 1.094253 18.014674 1.092692 1.265086 11.735830 1.484249 0.529489 2.460633 2.027195 5.737926 -16.630083 -9.457998 7.269694 -6.992813 -2.993227 3.430151 1.061596 0.000000 0.000000 0.000000 17.949974 -33.950722 -41.093944 20.210937 -30.895674 5.639286 29.705244 -19.801146 7.206453 0.000000 0.000000 0.000000 -7.125000 0.000000 0.000000 2.118126 21.699229 1.185749 0.000000 0.000000 0.000000 -6.795249 -33.170141 55.298438 -39.771328 -47.933344 -18.269453 -18.708214 30.575439 14.350709 0.000000 0.000000 0.000000 7.125000 0.000000 0.000000 8.161257 44.938249 0.012579
0.272832 13.388694 1.521867 -2.202755 -3.544331 2.473008 0.000000 0.000000 0.000000 -5.964398 4.474368 -54.892352 22.178831 19.884308 96.382515 3.216468 -0.424922 -33.915225 1.463674 -7.645583 -21.642963 0.000000 0.000000 0.000000 14.076168 5.922005 -53.186504 -21.021501 -19.974663 92.987879 -4.372912 -0.849411 -40.027220 -0.082741 1.854825 -5.104566 -0.128958 1.182729 19.508447 2.435180 1.485598 12.314250 2.405270 0.623572 2.321105 2.273709 5.880195 -16.650812 -10.410795 7.321154 -8.320774 -3.379668 3.474307 0.684942 0.000000 0.000000 0.000000 17.934823 -37.500654 -42.711163 20.447175 -31.177313 5.761030 29.738573 -19.755042 7.118961 0.000000 0.000000 0.000000 -7.125000 0.000000 0.000000 2.148337 21.796772 1.197971 0.000000 0.000000 0.000000 -9.471485 -35.032667 54.019875 -40.854551 -48.567840 -19.077541 -19.235727 29.081859 13.729316 0.000000 0.000000 0.000000 7.125000 0.000000 0.000000 7.543206 44.355688 0.120379
0.270913 13.126829 1.423704 -4.708577 -2.936762 3.326306 0.000000 0.000000 0.000000 -1.788050 2.367365 -58.387339 23.690652 19.669527 100.848307 3.069727 -0.960237 -32.966060 1.485676 -7.700538 -21.808232 0.000000 0.000000 0.000000 16.524510 3.266894 -56.445395 -21.738419 -19.927246 95.088691 -4.517437 1.591528 -40.032084 -0.091541 1.951659 -5.372042 0.610298 1.207762 21.003739 3.845082 1.655019 12.694318 3.451619 0.686030 1.977559 2.220459 5.927512 -16.707700 -10.890418 7.305067 -9.429440 -3.554283 3.497074 0.343665 0.000000 0.000000 0.000000 17.659843 -40.843365 -44.473345 20.750205 -31.535521 5.918794 29.705418 -20.269132 6.964726 0.000000 0.000000 0.000000 -7.125000 0.000000 0.000000 2.134888 21.976022 1.181718 0.000000 0.000000 0.000000 -12.603398 -36.653864 52.394708 -41.773195 -49.085961 -19.768943 -19.794661 29.110638 15.394199 0.000000 0.000000 0.000000 7.125000 0.000000 0.000000 7.402079 46.157402 -0.211995
0.270992 12.878953 1.317329 -7.022208 -2.737538 4.564975 0.000000 0.000000 0.000000 1.451181 1.845780 -62.296569 24.883295 19.418245 104.412058 2.959198 -0.230033 -32.564922 1.499123 -7.733891 -21.908588 0.000000 0.000000 0.000000 18.943486 1.423228 -60.150353 -22.441382 -19.856495 97.154701 -4.541846 3.759418 -39.671256 -0.092619 1.962954 -5.403328 1.263998 1.442486 22.334222 5.026002 2.102569 13.002094 4.256677 0.888114 1.631214 2.307307 5.937822 -16.938992 -11.369736 7.206920 -10.568305 -3.762713 3.473252 0.020015 0.000000 0.000000 0.000000 17.800600 -43.995662 -46.257844 21.261869 -32.132630 6.188602 29.382537 -20.717556 7.208275 0.000000 0.000000 0.000000 -7.125000 0.000000 0.000000 1.883751 21.722764 1.053373 0.000000 0.000000 0.000000 -15.724206 -38.421950 50.577253 -41.867848 -49.138399 -19.840498 -19.414176 28.426919 16.821516 0.000000 0.000000 0.000000 7.125000 0.000000 0.000000 8.114071 47.586863 -0.521314
0.282418 12.658829 1.210279 -8.501998 -2.414593 6.007983 0.000000 0.000000 0.000000 3.461539 1.365227 -66.011371 25.778723 19.179612 107.121176 2.907021 0.730344 -32.574939 1.479684 -7.685824 -21.763954 0.000000 0.000000 0.000000 20.509211 -0.254666 -64.092338 -23.145019 -19.761039 99.230867 -4.495011 6.288983 -39.036107 -0.059075 1.567591 -4.312125 1.710341 1.597602 23.734105 5.671834 2.440026 13.101404 4.614531 1.047403 1.039373 2.257412 5.835835 -17.006046 -11.381729 6.996026 -11.618984 -3.794221 3.404644 -0.340599 0.000000 0.000000 0.000000 18.544794 -46.484432 -47.839164 22.258132 -33.267344 6.726997 29.092930 -20.844055 7.226271 0.000000 0.000000 0.000000 -7.125000 0.000000 0.000000 1.672185 21.724930 0.934896 0.000000 0.000000 0.000000 -18.547515 -40.008987 48.944214 -41.221394 -48.776874 -19.353033 -18.750668 27.753555 17.357783 0.000000 0.000000 0.000000 7.125000 0.000000 0.000000 8.886865 48.045723 -0.672700
0.294827 12.434521 1.090734 -8.953103 -2.034553 8.080080 0.000000 0.000000 0.000000 4.540345 0.704593 -70.454155 26.561928 18.934428 109.519439 2.875487 0.986218 -32.483148 1.471384 -7.665311 -21.701934 0.000000 0.000000 0.000000 20.986978 -1.177350 -68.913092 -23.924642 -19.626337 101.544055 -4.400030 8.282730 -38.365858 -0.025456 1.025488 -2.818984 1.385951 1.756685 24.662668 5.847702 2.625332 12.999724 4.932408 1.114399 0.447725 2.243335 5.682639 -16.944838 -11.233125 6.701555 -12.861780 -3.792180 3.302045 -0.799830 0.000000 0.000000 0.000000 20.058018 -48.701752 -48.840251 23.440424 -34.566395 7.386866 28.201762 -21.779517 7.065696 0.000000 0.000000 0.000000 -7.125000 0.000000 0.000000 1.033657 21.974386 0.571918 0.000000 0.000000 0.000000 -21.280779 -41.840024 47.712855 -39.806926 -47.954549 -18.295880 -17.563632 27.831219 17.594583 0.000000 0.000000 0.000000 7.125000 0.000000 0.000000 10.076537 48.117596 -0.782551
